<svg width="2127" height="794" viewBox="0 0 2127 794" fill="none" xmlns="http://www.w3.org/2000/svg">
<path d="M1520.03 132.006C1506.62 276.97 1387.77 421.77 1321.77 487.57L1163.85 329.159C1229.85 263.359 1375.02 144.961 1520.03 132.006Z" fill="white"/>
<path d="M1229.86 263.359L1098.01 289.515L1177.01 342.359L1229.86 263.359Z" fill="#94A3B8"/>
<path d="M1387.77 421.772L1361.2 553.535L1308.6 474.371L1387.77 421.772Z" fill="#94A3B8"/>
<path d="M1341.8 309.667C1359.97 327.894 1389.48 327.94 1407.7 309.77C1425.93 291.599 1425.98 262.094 1407.81 243.867C1389.64 225.641 1360.13 225.595 1341.9 243.765C1323.68 261.935 1323.63 291.44 1341.8 309.667Z" fill="#0F172A" stroke="#38BDF8" stroke-width="2.2"/>
<path d="M1203.33 368.76C1176.85 447.802 1203.17 474.203 1282.29 447.966C1229.57 447.884 1203.25 421.482 1203.33 368.76Z" fill="#EF4444"/>
<path d="M1157.47 375C1117.44 494.468 1157.22 534.373 1276.81 494.716C1197.13 494.592 1157.34 454.687 1157.47 375Z" fill="#EF4444"/>
<path d="M1085.62 375C1021.42 566.635 1085.23 630.646 1277.06 567.033C1149.24 566.834 1085.43 502.823 1085.62 375Z" fill="#EF6644"/>
<path d="M990.758 431C913.085 662.816 990.277 740.249 1222.33 663.297C1067.71 663.057 990.517 585.624 990.758 431Z" fill="#F98D34"/>
<mask id="path-9-outside-1_938_682" maskUnits="userSpaceOnUse" x="-0.671875" y="277" width="1308" height="161" fill="black">
<rect fill="white" x="-0.671875" y="277" width="1308" height="161"/>
<path d="M185.703 430.75L151.953 363.25H101.328L112.578 340.75H174.453L185.703 318.25H106.953L67.5781 397H11.3281L67.5781 284.5H258.828L225.078 352H202.578L230.703 408.25H596.328L585.078 430.75H185.703ZM373.965 374.5L402.09 318.25H323.34L295.215 374.5H373.965ZM227.715 397L283.965 284.5H475.215L418.965 397H227.715ZM432.852 397L489.102 284.5H680.352L663.477 318.25H528.477L500.352 374.5H635.352L624.102 397H432.852ZM637.988 397L694.238 284.5H750.488L722.363 340.75H801.113L829.238 284.5H885.488L851.738 352H829.238L851.738 397H795.488L778.613 363.25H711.113L694.238 397H637.988ZM843.125 397L899.375 284.5H1090.62L1073.75 318.25H938.75L927.5 340.75H1062.5L1051.25 363.25H916.25L910.625 374.5H1045.62L1034.38 397H843.125ZM1115.76 397L1155.14 318.25H1087.64L1104.51 284.5H1295.76L1278.89 318.25H1211.39L1172.01 397H1115.76Z"/>
</mask>
<path d="M185.703 430.75L151.953 363.25H101.328L112.578 340.75H174.453L185.703 318.25H106.953L67.5781 397H11.3281L67.5781 284.5H258.828L225.078 352H202.578L230.703 408.25H596.328L585.078 430.75H185.703ZM373.965 374.5L402.09 318.25H323.34L295.215 374.5H373.965ZM227.715 397L283.965 284.5H475.215L418.965 397H227.715ZM432.852 397L489.102 284.5H680.352L663.477 318.25H528.477L500.352 374.5H635.352L624.102 397H432.852ZM637.988 397L694.238 284.5H750.488L722.363 340.75H801.113L829.238 284.5H885.488L851.738 352H829.238L851.738 397H795.488L778.613 363.25H711.113L694.238 397H637.988ZM843.125 397L899.375 284.5H1090.62L1073.75 318.25H938.75L927.5 340.75H1062.5L1051.25 363.25H916.25L910.625 374.5H1045.62L1034.38 397H843.125ZM1115.76 397L1155.14 318.25H1087.64L1104.51 284.5H1295.76L1278.89 318.25H1211.39L1172.01 397H1115.76Z" fill="white"/>
<path d="M185.703 430.75L179.442 433.88L181.377 437.75H185.703V430.75ZM151.953 363.25L158.214 360.12L156.279 356.25H151.953V363.25ZM101.328 363.25L95.0671 360.12L90.0019 370.25H101.328V363.25ZM112.578 340.75V333.75H108.252L106.317 337.62L112.578 340.75ZM174.453 340.75V347.75H178.779L180.714 343.88L174.453 340.75ZM185.703 318.25L191.964 321.38L197.029 311.25H185.703V318.25ZM106.953 318.25V311.25H102.627L100.692 315.12L106.953 318.25ZM67.5781 397V404H71.9044L73.8391 400.13L67.5781 397ZM11.3281 397L5.06713 393.87L0.00188732 404H11.3281V397ZM67.5781 284.5V277.5H63.2519L61.3171 281.37L67.5781 284.5ZM258.828 284.5L265.089 287.63L270.154 277.5H258.828V284.5ZM225.078 352V359H229.404L231.339 355.13L225.078 352ZM202.578 352V345H191.252L196.317 355.13L202.578 352ZM230.703 408.25L224.442 411.38L226.377 415.25H230.703V408.25ZM596.328 408.25L602.589 411.38L607.654 401.25H596.328V408.25ZM585.078 430.75V437.75H589.404L591.339 433.88L585.078 430.75ZM185.703 430.75L191.964 427.62L158.214 360.12L151.953 363.25L145.692 366.38L179.442 433.88L185.703 430.75ZM151.953 363.25V356.25H101.328V363.25V370.25H151.953V363.25ZM101.328 363.25L107.589 366.38L118.839 343.88L112.578 340.75L106.317 337.62L95.0671 360.12L101.328 363.25ZM112.578 340.75V347.75H174.453V340.75V333.75H112.578V340.75ZM174.453 340.75L180.714 343.88L191.964 321.38L185.703 318.25L179.442 315.12L168.192 337.62L174.453 340.75ZM185.703 318.25V311.25H106.953V318.25V325.25H185.703V318.25ZM106.953 318.25L100.692 315.12L61.3171 393.87L67.5781 397L73.8391 400.13L113.214 321.38L106.953 318.25ZM67.5781 397V390H11.3281V397V404H67.5781V397ZM11.3281 397L17.5891 400.13L73.8391 287.63L67.5781 284.5L61.3171 281.37L5.06713 393.87L11.3281 397ZM67.5781 284.5V291.5H258.828V284.5V277.5H67.5781V284.5ZM258.828 284.5L252.567 281.37L218.817 348.87L225.078 352L231.339 355.13L265.089 287.63L258.828 284.5ZM225.078 352V345H202.578V352V359H225.078V352ZM202.578 352L196.317 355.13L224.442 411.38L230.703 408.25L236.964 405.12L208.839 348.87L202.578 352ZM230.703 408.25V415.25H596.328V408.25V401.25H230.703V408.25ZM596.328 408.25L590.067 405.12L578.817 427.62L585.078 430.75L591.339 433.88L602.589 411.38L596.328 408.25ZM585.078 430.75V423.75H185.703V430.75V437.75H585.078V430.75ZM373.965 374.5V381.5H378.291L380.226 377.63L373.965 374.5ZM402.09 318.25L408.351 321.38L413.416 311.25H402.09V318.25ZM323.34 318.25V311.25H319.014L317.079 315.12L323.34 318.25ZM295.215 374.5L288.954 371.37L283.889 381.5H295.215V374.5ZM227.715 397L221.454 393.87L216.389 404H227.715V397ZM283.965 284.5V277.5H279.639L277.704 281.37L283.965 284.5ZM475.215 284.5L481.476 287.63L486.541 277.5H475.215V284.5ZM418.965 397V404H423.291L425.226 400.13L418.965 397ZM373.965 374.5L380.226 377.63L408.351 321.38L402.09 318.25L395.829 315.12L367.704 371.37L373.965 374.5ZM402.09 318.25V311.25H323.34V318.25V325.25H402.09V318.25ZM323.34 318.25L317.079 315.12L288.954 371.37L295.215 374.5L301.476 377.63L329.601 321.38L323.34 318.25ZM295.215 374.5V381.5H373.965V374.5V367.5H295.215V374.5ZM227.715 397L233.976 400.13L290.226 287.63L283.965 284.5L277.704 281.37L221.454 393.87L227.715 397ZM283.965 284.5V291.5H475.215V284.5V277.5H283.965V284.5ZM475.215 284.5L468.954 281.37L412.704 393.87L418.965 397L425.226 400.13L481.476 287.63L475.215 284.5ZM418.965 397V390H227.715V397V404H418.965V397ZM432.852 397L426.591 393.87L421.525 404H432.852V397ZM489.102 284.5V277.5H484.775L482.841 281.37L489.102 284.5ZM680.352 284.5L686.613 287.63L691.678 277.5H680.352V284.5ZM663.477 318.25V325.25H667.803L669.738 321.38L663.477 318.25ZM528.477 318.25V311.25H524.15L522.216 315.12L528.477 318.25ZM500.352 374.5L494.091 371.37L489.025 381.5H500.352V374.5ZM635.352 374.5L641.613 377.63L646.678 367.5H635.352V374.5ZM624.102 397V404H628.428L630.363 400.13L624.102 397ZM432.852 397L439.113 400.13L495.363 287.63L489.102 284.5L482.841 281.37L426.591 393.87L432.852 397ZM489.102 284.5V291.5H680.352V284.5V277.5H489.102V284.5ZM680.352 284.5L674.091 281.37L657.216 315.12L663.477 318.25L669.738 321.38L686.613 287.63L680.352 284.5ZM663.477 318.25V311.25H528.477V318.25V325.25H663.477V318.25ZM528.477 318.25L522.216 315.12L494.091 371.37L500.352 374.5L506.613 377.63L534.738 321.38L528.477 318.25ZM500.352 374.5V381.5H635.352V374.5V367.5H500.352V374.5ZM635.352 374.5L629.091 371.37L617.841 393.87L624.102 397L630.363 400.13L641.613 377.63L635.352 374.5ZM624.102 397V390H432.852V397V404H624.102V397ZM637.988 397L631.727 393.87L626.662 404H637.988V397ZM694.238 284.5V277.5H689.912L687.977 281.37L694.238 284.5ZM750.488 284.5L756.749 287.63L761.815 277.5H750.488V284.5ZM722.363 340.75L716.102 337.62L711.037 347.75H722.363V340.75ZM801.113 340.75V347.75H805.44L807.374 343.88L801.113 340.75ZM829.238 284.5V277.5H824.912L822.977 281.37L829.238 284.5ZM885.488 284.5L891.749 287.63L896.815 277.5H885.488V284.5ZM851.738 352V359H856.065L857.999 355.13L851.738 352ZM829.238 352V345H817.912L822.977 355.13L829.238 352ZM851.738 397V404H863.065L857.999 393.87L851.738 397ZM795.488 397L789.227 400.13L791.162 404H795.488V397ZM778.613 363.25L784.874 360.12L782.94 356.25H778.613V363.25ZM711.113 363.25V356.25H706.787L704.852 360.12L711.113 363.25ZM694.238 397V404H698.565L700.499 400.13L694.238 397ZM637.988 397L644.249 400.13L700.499 287.63L694.238 284.5L687.977 281.37L631.727 393.87L637.988 397ZM694.238 284.5V291.5H750.488V284.5V277.5H694.238V284.5ZM750.488 284.5L744.227 281.37L716.102 337.62L722.363 340.75L728.624 343.88L756.749 287.63L750.488 284.5ZM722.363 340.75V347.75H801.113V340.75V333.75H722.363V340.75ZM801.113 340.75L807.374 343.88L835.499 287.63L829.238 284.5L822.977 281.37L794.852 337.62L801.113 340.75ZM829.238 284.5V291.5H885.488V284.5V277.5H829.238V284.5ZM885.488 284.5L879.227 281.37L845.477 348.87L851.738 352L857.999 355.13L891.749 287.63L885.488 284.5ZM851.738 352V345H829.238V352V359H851.738V352ZM829.238 352L822.977 355.13L845.477 400.13L851.738 397L857.999 393.87L835.499 348.87L829.238 352ZM851.738 397V390H795.488V397V404H851.738V397ZM795.488 397L801.749 393.87L784.874 360.12L778.613 363.25L772.352 366.38L789.227 400.13L795.488 397ZM778.613 363.25V356.25H711.113V363.25V370.25H778.613V363.25ZM711.113 363.25L704.852 360.12L687.977 393.87L694.238 397L700.499 400.13L717.374 366.38L711.113 363.25ZM694.238 397V390H637.988V397V404H694.238V397ZM843.125 397L836.864 393.87L831.799 404H843.125V397ZM899.375 284.5V277.5H895.049L893.114 281.37L899.375 284.5ZM1090.62 284.5L1096.89 287.63L1101.95 277.5H1090.62V284.5ZM1073.75 318.25V325.25H1078.08L1080.01 321.38L1073.75 318.25ZM938.75 318.25V311.25H934.424L932.489 315.12L938.75 318.25ZM927.5 340.75L921.239 337.62L916.174 347.75H927.5V340.75ZM1062.5 340.75L1068.76 343.88L1073.83 333.75H1062.5V340.75ZM1051.25 363.25V370.25H1055.58L1057.51 366.38L1051.25 363.25ZM916.25 363.25V356.25H911.924L909.989 360.12L916.25 363.25ZM910.625 374.5L904.364 371.37L899.299 381.5H910.625V374.5ZM1045.62 374.5L1051.89 377.63L1056.95 367.5H1045.62V374.5ZM1034.38 397V404H1038.7L1040.64 400.13L1034.38 397ZM843.125 397L849.386 400.13L905.636 287.63L899.375 284.5L893.114 281.37L836.864 393.87L843.125 397ZM899.375 284.5V291.5H1090.62V284.5V277.5H899.375V284.5ZM1090.62 284.5L1084.36 281.37L1067.49 315.12L1073.75 318.25L1080.01 321.38L1096.89 287.63L1090.62 284.5ZM1073.75 318.25V311.25H938.75V318.25V325.25H1073.75V318.25ZM938.75 318.25L932.489 315.12L921.239 337.62L927.5 340.75L933.761 343.88L945.011 321.38L938.75 318.25ZM927.5 340.75V347.75H1062.5V340.75V333.75H927.5V340.75ZM1062.5 340.75L1056.24 337.62L1044.99 360.12L1051.25 363.25L1057.51 366.38L1068.76 343.88L1062.5 340.75ZM1051.25 363.25V356.25H916.25V363.25V370.25H1051.25V363.25ZM916.25 363.25L909.989 360.12L904.364 371.37L910.625 374.5L916.886 377.63L922.511 366.38L916.25 363.25ZM910.625 374.5V381.5H1045.62V374.5V367.5H910.625V374.5ZM1045.62 374.5L1039.36 371.37L1028.11 393.87L1034.38 397L1040.64 400.13L1051.89 377.63L1045.62 374.5ZM1034.38 397V390H843.125V397V404H1034.38V397ZM1115.76 397L1109.5 393.87L1104.44 404H1115.76V397ZM1155.14 318.25L1161.4 321.38L1166.46 311.25H1155.14V318.25ZM1087.64 318.25L1081.38 315.12L1076.31 325.25H1087.64V318.25ZM1104.51 284.5V277.5H1100.19L1098.25 281.37L1104.51 284.5ZM1295.76 284.5L1302.02 287.63L1307.09 277.5H1295.76V284.5ZM1278.89 318.25V325.25H1283.21L1285.15 321.38L1278.89 318.25ZM1211.39 318.25V311.25H1207.06L1205.13 315.12L1211.39 318.25ZM1172.01 397V404H1176.34L1178.27 400.13L1172.01 397ZM1115.76 397L1122.02 400.13L1161.4 321.38L1155.14 318.25L1148.88 315.12L1109.5 393.87L1115.76 397ZM1155.14 318.25V311.25H1087.64V318.25V325.25H1155.14V318.25ZM1087.64 318.25L1093.9 321.38L1110.77 287.63L1104.51 284.5L1098.25 281.37L1081.38 315.12L1087.64 318.25ZM1104.51 284.5V291.5H1295.76V284.5V277.5H1104.51V284.5ZM1295.76 284.5L1289.5 281.37L1272.63 315.12L1278.89 318.25L1285.15 321.38L1302.02 287.63L1295.76 284.5ZM1278.89 318.25V311.25H1211.39V318.25V325.25H1278.89V318.25ZM1211.39 318.25L1205.13 315.12L1165.75 393.87L1172.01 397L1178.27 400.13L1217.65 321.38L1211.39 318.25ZM1172.01 397V390H1115.76V397V404H1172.01V397Z" fill="black" mask="url(#path-9-outside-1_938_682)"/>
<mask id="path-11-outside-2_938_682" maskUnits="userSpaceOnUse" x="1302.33" y="425" width="824" height="123" fill="black">
<rect fill="white" x="1302.33" y="425" width="824" height="123"/>
<path d="M1311.33 543L1367.58 430.5H1423.83L1395.7 486.75H1474.45L1502.58 430.5H1558.83L1525.08 498H1502.58L1525.08 543H1468.83L1451.95 509.25H1384.45L1367.58 543H1311.33ZM1623.34 486.75L1606.46 453L1589.59 486.75H1623.34ZM1527.71 543L1516.46 520.5L1561.46 430.5H1651.46L1707.71 543H1651.46L1634.59 509.25H1578.34L1561.46 543H1527.71ZM1665.35 543L1676.6 520.5H1811.6L1817.23 509.25H1682.23L1721.6 430.5H1912.85L1895.98 464.25H1760.98L1749.73 486.75H1884.73L1856.6 543H1665.35ZM1870.49 543L1926.74 430.5H1982.99L1954.86 486.75H2033.61L2061.74 430.5H2117.99L2061.74 543H2005.49L2022.36 509.25H1943.61L1926.74 543H1870.49Z"/>
</mask>
<path d="M1311.33 543L1367.58 430.5H1423.83L1395.7 486.75H1474.45L1502.58 430.5H1558.83L1525.08 498H1502.58L1525.08 543H1468.83L1451.95 509.25H1384.45L1367.58 543H1311.33ZM1623.34 486.75L1606.46 453L1589.59 486.75H1623.34ZM1527.71 543L1516.46 520.5L1561.46 430.5H1651.46L1707.71 543H1651.46L1634.59 509.25H1578.34L1561.46 543H1527.71ZM1665.35 543L1676.6 520.5H1811.6L1817.23 509.25H1682.23L1721.6 430.5H1912.85L1895.98 464.25H1760.98L1749.73 486.75H1884.73L1856.6 543H1665.35ZM1870.49 543L1926.74 430.5H1982.99L1954.86 486.75H2033.61L2061.74 430.5H2117.99L2061.74 543H2005.49L2022.36 509.25H1943.61L1926.74 543H1870.49Z" fill="white"/>
<path d="M1311.33 543L1306.86 540.764L1303.24 548H1311.33V543ZM1367.58 430.5V425.5H1364.49L1363.11 428.264L1367.58 430.5ZM1423.83 430.5L1428.3 432.736L1431.92 425.5H1423.83V430.5ZM1395.7 486.75L1391.23 484.514L1387.61 491.75H1395.7V486.75ZM1474.45 486.75V491.75H1477.54L1478.93 488.986L1474.45 486.75ZM1502.58 430.5V425.5H1499.49L1498.11 428.264L1502.58 430.5ZM1558.83 430.5L1563.3 432.736L1566.92 425.5H1558.83V430.5ZM1525.08 498V503H1528.17L1529.55 500.236L1525.08 498ZM1502.58 498V493H1494.49L1498.11 500.236L1502.58 498ZM1525.08 543V548H1533.17L1529.55 540.764L1525.08 543ZM1468.83 543L1464.36 545.236L1465.74 548H1468.83V543ZM1451.95 509.25L1456.43 507.014L1455.04 504.25H1451.95V509.25ZM1384.45 509.25V504.25H1381.36L1379.98 507.014L1384.45 509.25ZM1367.58 543V548H1370.67L1372.05 545.236L1367.58 543ZM1311.33 543L1315.8 545.236L1372.05 432.736L1367.58 430.5L1363.11 428.264L1306.86 540.764L1311.33 543ZM1367.58 430.5V435.5H1423.83V430.5V425.5H1367.58V430.5ZM1423.83 430.5L1419.36 428.264L1391.23 484.514L1395.7 486.75L1400.18 488.986L1428.3 432.736L1423.83 430.5ZM1395.7 486.75V491.75H1474.45V486.75V481.75H1395.7V486.75ZM1474.45 486.75L1478.93 488.986L1507.05 432.736L1502.58 430.5L1498.11 428.264L1469.98 484.514L1474.45 486.75ZM1502.58 430.5V435.5H1558.83V430.5V425.5H1502.58V430.5ZM1558.83 430.5L1554.36 428.264L1520.61 495.764L1525.08 498L1529.55 500.236L1563.3 432.736L1558.83 430.5ZM1525.08 498V493H1502.58V498V503H1525.08V498ZM1502.58 498L1498.11 500.236L1520.61 545.236L1525.08 543L1529.55 540.764L1507.05 495.764L1502.58 498ZM1525.08 543V538H1468.83V543V548H1525.08V543ZM1468.83 543L1473.3 540.764L1456.43 507.014L1451.95 509.25L1447.48 511.486L1464.36 545.236L1468.83 543ZM1451.95 509.25V504.25H1384.45V509.25V514.25H1451.95V509.25ZM1384.45 509.25L1379.98 507.014L1363.11 540.764L1367.58 543L1372.05 545.236L1388.93 511.486L1384.45 509.25ZM1367.58 543V538H1311.33V543V548H1367.58V543ZM1623.34 486.75V491.75H1631.43L1627.81 484.514L1623.34 486.75ZM1606.46 453L1610.94 450.764L1606.46 441.82L1601.99 450.764L1606.46 453ZM1589.59 486.75L1585.12 484.514L1581.5 491.75H1589.59V486.75ZM1527.71 543L1523.24 545.236L1524.62 548H1527.71V543ZM1516.46 520.5L1511.99 518.264L1510.87 520.5L1511.99 522.736L1516.46 520.5ZM1561.46 430.5V425.5H1558.37L1556.99 428.264L1561.46 430.5ZM1651.46 430.5L1655.94 428.264L1654.55 425.5H1651.46V430.5ZM1707.71 543V548H1715.8L1712.19 540.764L1707.71 543ZM1651.46 543L1646.99 545.236L1648.37 548H1651.46V543ZM1634.59 509.25L1639.06 507.014L1637.68 504.25H1634.59V509.25ZM1578.34 509.25V504.25H1575.25L1573.87 507.014L1578.34 509.25ZM1561.46 543V548H1564.56L1565.94 545.236L1561.46 543ZM1623.34 486.75L1627.81 484.514L1610.94 450.764L1606.46 453L1601.99 455.236L1618.87 488.986L1623.34 486.75ZM1606.46 453L1601.99 450.764L1585.12 484.514L1589.59 486.75L1594.06 488.986L1610.94 455.236L1606.46 453ZM1589.59 486.75V491.75H1623.34V486.75V481.75H1589.59V486.75ZM1527.71 543L1532.19 540.764L1520.94 518.264L1516.46 520.5L1511.99 522.736L1523.24 545.236L1527.71 543ZM1516.46 520.5L1520.94 522.736L1565.94 432.736L1561.46 430.5L1556.99 428.264L1511.99 518.264L1516.46 520.5ZM1561.46 430.5V435.5H1651.46V430.5V425.5H1561.46V430.5ZM1651.46 430.5L1646.99 432.736L1703.24 545.236L1707.71 543L1712.19 540.764L1655.94 428.264L1651.46 430.5ZM1707.71 543V538H1651.46V543V548H1707.71V543ZM1651.46 543L1655.94 540.764L1639.06 507.014L1634.59 509.25L1630.12 511.486L1646.99 545.236L1651.46 543ZM1634.59 509.25V504.25H1578.34V509.25V514.25H1634.59V509.25ZM1578.34 509.25L1573.87 507.014L1556.99 540.764L1561.46 543L1565.94 545.236L1582.81 511.486L1578.34 509.25ZM1561.46 543V538H1527.71V543V548H1561.46V543ZM1665.35 543L1660.88 540.764L1657.26 548H1665.35V543ZM1676.6 520.5V515.5H1673.51L1672.13 518.264L1676.6 520.5ZM1811.6 520.5V525.5H1814.69L1816.07 522.736L1811.6 520.5ZM1817.23 509.25L1821.7 511.486L1825.32 504.25H1817.23V509.25ZM1682.23 509.25L1677.75 507.014L1674.14 514.25H1682.23V509.25ZM1721.6 430.5V425.5H1718.51L1717.13 428.264L1721.6 430.5ZM1912.85 430.5L1917.32 432.736L1920.94 425.5H1912.85V430.5ZM1895.98 464.25V469.25H1899.07L1900.45 466.486L1895.98 464.25ZM1760.98 464.25V459.25H1757.89L1756.5 462.014L1760.98 464.25ZM1749.73 486.75L1745.25 484.514L1741.64 491.75H1749.73V486.75ZM1884.73 486.75L1889.2 488.986L1892.82 481.75H1884.73V486.75ZM1856.6 543V548H1859.69L1861.07 545.236L1856.6 543ZM1665.35 543L1669.82 545.236L1681.07 522.736L1676.6 520.5L1672.13 518.264L1660.88 540.764L1665.35 543ZM1676.6 520.5V525.5H1811.6V520.5V515.5H1676.6V520.5ZM1811.6 520.5L1816.07 522.736L1821.7 511.486L1817.23 509.25L1812.75 507.014L1807.13 518.264L1811.6 520.5ZM1817.23 509.25V504.25H1682.23V509.25V514.25H1817.23V509.25ZM1682.23 509.25L1686.7 511.486L1726.07 432.736L1721.6 430.5L1717.13 428.264L1677.75 507.014L1682.23 509.25ZM1721.6 430.5V435.5H1912.85V430.5V425.5H1721.6V430.5ZM1912.85 430.5L1908.38 428.264L1891.5 462.014L1895.98 464.25L1900.45 466.486L1917.32 432.736L1912.85 430.5ZM1895.98 464.25V459.25H1760.98V464.25V469.25H1895.98V464.25ZM1760.98 464.25L1756.5 462.014L1745.25 484.514L1749.73 486.75L1754.2 488.986L1765.45 466.486L1760.98 464.25ZM1749.73 486.75V491.75H1884.73V486.75V481.75H1749.73V486.75ZM1884.73 486.75L1880.25 484.514L1852.13 540.764L1856.6 543L1861.07 545.236L1889.2 488.986L1884.73 486.75ZM1856.6 543V538H1665.35V543V548H1856.6V543ZM1870.49 543L1866.02 540.764L1862.4 548H1870.49V543ZM1926.74 430.5V425.5H1923.65L1922.27 428.264L1926.74 430.5ZM1982.99 430.5L1987.46 432.736L1991.08 425.5H1982.99V430.5ZM1954.86 486.75L1950.39 484.514L1946.77 491.75H1954.86V486.75ZM2033.61 486.75V491.75H2036.7L2038.09 488.986L2033.61 486.75ZM2061.74 430.5V425.5H2058.65L2057.27 428.264L2061.74 430.5ZM2117.99 430.5L2122.46 432.736L2126.08 425.5H2117.99V430.5ZM2061.74 543V548H2064.83L2066.21 545.236L2061.74 543ZM2005.49 543L2001.02 540.764L1997.4 548H2005.49V543ZM2022.36 509.25L2026.84 511.486L2030.45 504.25H2022.36V509.25ZM1943.61 509.25V504.25H1940.52L1939.14 507.014L1943.61 509.25ZM1926.74 543V548H1929.83L1931.21 545.236L1926.74 543ZM1870.49 543L1874.96 545.236L1931.21 432.736L1926.74 430.5L1922.27 428.264L1866.02 540.764L1870.49 543ZM1926.74 430.5V435.5H1982.99V430.5V425.5H1926.74V430.5ZM1982.99 430.5L1978.52 428.264L1950.39 484.514L1954.86 486.75L1959.34 488.986L1987.46 432.736L1982.99 430.5ZM1954.86 486.75V491.75H2033.61V486.75V481.75H1954.86V486.75ZM2033.61 486.75L2038.09 488.986L2066.21 432.736L2061.74 430.5L2057.27 428.264L2029.14 484.514L2033.61 486.75ZM2061.74 430.5V435.5H2117.99V430.5V425.5H2061.74V430.5ZM2117.99 430.5L2113.52 428.264L2057.27 540.764L2061.74 543L2066.21 545.236L2122.46 432.736L2117.99 430.5ZM2061.74 543V538H2005.49V543V548H2061.74V543ZM2005.49 543L2009.96 545.236L2026.84 511.486L2022.36 509.25L2017.89 507.014L2001.02 540.764L2005.49 543ZM2022.36 509.25V504.25H1943.61V509.25V514.25H2022.36V509.25ZM1943.61 509.25L1939.14 507.014L1922.27 540.764L1926.74 543L1931.21 545.236L1948.09 511.486L1943.61 509.25ZM1926.74 543V538H1870.49V543V548H1926.74V543Z" fill="black" mask="url(#path-11-outside-2_938_682)"/>
</svg>
